<svg width="223" height="44" viewBox="0 0 223 44" fill="none" xmlns="http://www.w3.org/2000/svg">
<path fill-rule="evenodd" clip-rule="evenodd" d="M14.9768 6.28792H17.5982C17.9222 5.35695 18.5279 4.54993 19.3314 3.97883C20.1348 3.40774 21.0961 3.1009 22.0818 3.1009C23.0675 3.1009 24.0288 3.40774 24.8322 3.97883C25.6357 4.54993 26.2414 5.35695 26.5654 6.28792H29.1868C28.8383 4.66223 27.9428 3.20523 26.6498 2.16004C25.3568 1.11485 23.7444 0.544678 22.0818 0.544678C20.4192 0.544678 18.8068 1.11485 17.5138 2.16004C16.2208 3.20523 15.3253 4.66223 14.9768 6.28792ZM26.9489 16.5338H17.2145C16.4409 16.5338 16.021 16.911 15.955 17.6655V28.6626C15.955 29.5151 16.3748 29.9414 17.2145 29.9414H26.9489C27.7886 29.9414 28.2096 29.5151 28.2117 28.6626V17.8189C28.2117 16.9664 27.7908 16.5402 26.9489 16.5402V16.5338ZM27.2015 7.90227H16.9716C10.791 7.90227 7.68047 11.2057 7.63997 17.8125V28.6562C7.64052 29.5274 7.70677 30.3973 7.83818 31.2585L10.4244 30.552C10.7295 30.4729 11.05 30.4757 11.3537 30.56C11.6574 30.6442 11.9335 30.807 12.1542 31.032C12.375 31.2569 12.5325 31.5361 12.6111 31.8413C12.6896 32.1465 12.6863 32.467 12.6015 32.7706L11.425 37.2462C12.8636 38.1285 14.7125 38.5697 16.9716 38.5697H27.2015C33.3821 38.5697 36.4926 35.2662 36.5331 28.6594V17.8189C36.499 11.2121 33.3885 7.90867 27.2015 7.90867V7.90227ZM47.169 16.5338H56.9737C57.6322 16.5572 58.0191 16.8652 58.1341 17.4577C58.154 17.577 58.1637 17.6979 58.1629 17.8189V28.6626C58.1629 29.5151 57.7431 29.9414 56.9034 29.9414H47.169C46.3271 29.9414 45.9009 29.5151 45.8902 28.6626V17.8189C45.8895 17.6979 45.8991 17.577 45.919 17.4577C45.9587 17.185 46.1008 16.9377 46.3164 16.7661C46.5319 16.5944 46.8048 16.5114 47.0794 16.5338H47.153H47.169ZM57.1975 7.90227H46.6287H46.3442H46.066L45.7911 7.92145L45.5226 7.94063L45.2572 7.96941L44.9951 8.00137L44.7393 8.03654L44.49 8.0781L44.2406 8.12286L43.9977 8.17401L43.7611 8.23155L43.5277 8.29229L43.2976 8.35622L43.0738 8.42656L42.8532 8.50008L42.6358 8.58L42.4248 8.66632L42.2202 8.75583L42.175 8.77622L42.175 8.77623L42.175 8.77625C42.1208 8.80056 42.0682 8.82419 42.0156 8.85174L41.8206 8.95084C41.7535 8.98281 41.6895 9.01797 41.6256 9.05314L41.437 9.16183L41.2548 9.27692L41.0726 9.3952L41.0451 9.41483L41.0151 9.43601L41.015 9.43604C40.9767 9.46304 40.9383 9.49004 40.8999 9.51988L40.7273 9.64775L40.5611 9.77882L40.4012 9.91948C40.3469 9.96424 40.2957 10.0122 40.2446 10.0601C40.1903 10.108 40.1392 10.1591 40.0914 10.207L40.0911 10.2072L39.9441 10.3607C39.9132 10.3916 39.8846 10.4236 39.8562 10.4555C39.8377 10.4763 39.8192 10.4971 39.8002 10.5173L39.6596 10.6803L39.5253 10.8466L39.3942 11.0192L39.2695 11.195L39.148 11.3772L39.033 11.5659C38.9946 11.6266 38.9562 11.6905 38.9211 11.7545L38.8124 11.9527C38.7861 12.0004 38.7616 12.05 38.7363 12.1013L38.7101 12.1541C38.6749 12.2244 38.6429 12.2884 38.611 12.3587C38.579 12.429 38.5471 12.4993 38.5183 12.5697C38.4934 12.6243 38.4705 12.6809 38.448 12.7365L38.4288 12.7839L38.3425 13.0044C38.3325 13.0332 38.322 13.0624 38.3114 13.0919L38.3112 13.0924C38.2948 13.1383 38.2781 13.1848 38.2625 13.2314C38.237 13.3039 38.2114 13.3806 38.1858 13.4616C38.1762 13.4946 38.166 13.5276 38.1557 13.5608L38.1555 13.5615C38.1419 13.6053 38.1282 13.6496 38.1155 13.695L38.0483 13.9347C38.026 14.0146 38.0068 14.0977 37.9876 14.1809L37.9876 14.1809C37.9684 14.2619 37.9492 14.345 37.93 14.4302C37.93 14.4832 37.9158 14.5361 37.9013 14.5899C37.893 14.6206 37.8847 14.6515 37.8789 14.6828C37.8597 14.7691 37.8437 14.8554 37.8277 14.9417C37.8118 15.0281 37.799 15.1176 37.7862 15.2071C37.7719 15.2844 37.7601 15.3669 37.7486 15.4476L37.7486 15.448L37.7446 15.4756C37.7446 15.531 37.7349 15.5875 37.7251 15.6438L37.7251 15.6438C37.7191 15.6786 37.7131 15.7132 37.7095 15.7473C37.705 15.7888 37.6999 15.8317 37.6947 15.875L37.6947 15.8752C37.6887 15.9252 37.6826 15.9758 37.6775 16.0255C37.6741 16.0583 37.6731 16.0915 37.6721 16.125V16.1251C37.6703 16.1861 37.6684 16.2481 37.6519 16.31C37.6387 16.3595 37.6391 16.409 37.6396 16.4585C37.64 16.5049 37.6404 16.5513 37.6295 16.5977C37.6175 16.6493 37.6184 16.7019 37.6193 16.7548C37.6201 16.8003 37.6209 16.846 37.6136 16.8918V17.1891V17.4928V17.7741V28.7074V28.9823C37.6248 29.751 37.6899 30.518 37.8086 31.2776C38.254 34.0802 39.4496 36.0772 41.3954 37.2685L41.5009 37.3325H41.5169L41.5872 37.3708L41.7119 37.4412L41.7854 37.4795L41.8558 37.5179L41.9261 37.5531H41.9517L42.0636 37.6074L42.1371 37.6426L42.2554 37.6937H42.2714L42.3449 37.7257L42.4696 37.7768H42.4952L42.5719 37.8088L42.6486 37.8376L42.7605 37.8791L42.8756 37.9207L42.9555 37.9495H42.9747L43.0834 37.9846L43.2208 38.0262L43.2816 38.0454L43.4222 38.0869L43.5341 38.1157L43.6204 38.1381H43.6556L43.7675 38.1669L43.9178 38.202L43.9945 38.218L44.1479 38.25L44.2438 38.2692L44.4005 38.2979L44.4836 38.3139L44.653 38.3395H44.733L44.9184 38.3683H44.9759L45.1869 38.3938H45.2476L45.449 38.413H45.497L45.7336 38.4322H45.7719L46.0181 38.4482H46.0469H46.2834H46.3154H46.5583H57.4276H57.6706H57.7058H57.9423H57.9711L58.2173 38.4322H58.2524L58.489 38.413H58.537L58.7416 38.3938H58.8023L59.0101 38.3683H59.0676L59.2562 38.3395H59.3362L59.5056 38.3139L59.5855 38.2979L59.7422 38.2692L59.8381 38.25L59.9947 38.218L60.0682 38.202L60.2185 38.1669L60.3336 38.1381H60.3687L60.4519 38.1157L60.5637 38.0869L60.7012 38.0454L60.7651 38.0262L60.9026 37.9846L61.0113 37.9495L61.0944 37.9207L61.2095 37.8791L61.3214 37.8376L61.3981 37.8088L61.4781 37.7768H61.5036L61.6283 37.7257L61.705 37.6937L61.8201 37.6426H61.8393L61.9128 37.6074L62.0247 37.5531H62.0471L62.1206 37.5179L62.1909 37.4795L62.2613 37.4412L62.386 37.3708L62.4563 37.3325L62.5586 37.2685C64.5023 36.075 65.6979 34.0781 66.1455 31.2776C66.2609 30.5177 66.326 29.7509 66.3405 28.9823V28.6786V17.8189V17.4992V17.1955V16.8982C66.3405 16.7991 66.3405 16.7032 66.3213 16.6041L66.3021 16.3164L66.2733 16.0319L66.2446 15.7537C66.2446 15.6905 66.2334 15.6256 66.2223 15.5615L66.2223 15.5613L66.2222 15.5609C66.2177 15.5344 66.2131 15.5081 66.2094 15.482C66.2094 15.4148 66.195 15.3457 66.181 15.279C66.1764 15.2568 66.1718 15.235 66.1678 15.2135C66.1678 15.1504 66.1535 15.0873 66.1395 15.0254L66.1394 15.0249C66.1336 14.9991 66.1278 14.9735 66.1231 14.9481L66.0751 14.6892C66.0592 14.6032 66.0401 14.5204 66.021 14.4376L66.0208 14.4366C66.0146 14.4098 66.0087 14.3826 66.0029 14.3555L66.0026 14.3543L66.0023 14.3528C65.9902 14.2967 65.9781 14.2406 65.9632 14.1873C65.944 14.1042 65.9249 14.021 65.9025 13.9411L65.8354 13.7014C65.8131 13.6219 65.7877 13.5456 65.7622 13.4693L65.7622 13.4691L65.7621 13.4688L65.7618 13.468C65.7504 13.4337 65.7396 13.3987 65.7289 13.364C65.7156 13.3211 65.7024 13.2785 65.6883 13.2378L65.682 13.221L65.6699 13.1879L65.653 13.1405C65.6373 13.0966 65.6218 13.0532 65.6052 13.0108C65.5908 12.9741 65.5772 12.9373 65.5636 12.9005C65.55 12.8638 65.5364 12.827 65.5221 12.7903L65.4326 12.5761L65.3398 12.3651L65.2439 12.1605L65.1416 11.9591L65.033 11.7609L65.0168 11.7336L64.9895 11.6868C64.9669 11.6479 64.9446 11.6095 64.9211 11.5723C64.8827 11.5083 64.8443 11.4444 64.8028 11.3836L64.6845 11.2014L64.6656 11.1751L64.6478 11.15L64.6477 11.1499C64.6182 11.1084 64.5882 11.0662 64.5566 11.0256L64.4287 10.853L64.2945 10.6867L64.1538 10.5237L64.01 10.367L63.8629 10.2136L63.7095 10.0665L63.7093 10.0664L63.7093 10.0664C63.6582 10.0185 63.6071 9.97059 63.5528 9.92588L63.3898 9.78522L63.2267 9.65414L63.0541 9.52627C63.0045 9.48766 62.9548 9.45381 62.9031 9.41856L62.8783 9.4016C62.8207 9.36004 62.76 9.32168 62.6993 9.28331L62.517 9.16823L62.3284 9.05953L62.1334 8.95723L61.9352 8.85813C61.8926 8.83469 61.8471 8.81409 61.8017 8.79349C61.7789 8.78319 61.7562 8.77288 61.7338 8.76223L61.526 8.67271L61.315 8.5864L61.1008 8.50648L60.8802 8.43295L60.6565 8.36262L60.4263 8.29868L60.1929 8.23794L59.9532 8.1804L59.7134 8.12925L59.464 8.08449L59.2147 8.04293L58.9557 8.00777L58.6968 7.9758L58.4314 7.94703L58.1597 7.92785L57.888 7.90867H57.6099H57.3254L57.1975 7.90227ZM1.31338 33.7264L9.58363 31.4662L9.58683 31.4726C9.89179 31.3946 10.2119 31.3981 10.5151 31.4828C10.8183 31.5674 11.0939 31.7302 11.3144 31.9549C11.5348 32.1796 11.6924 32.4582 11.7713 32.763C11.8502 33.0677 11.8476 33.3878 11.7639 33.6912L9.54847 42.1181C9.45954 42.472 9.26333 42.7896 8.98675 43.0275C8.71016 43.2654 8.36676 43.4119 8.00362 43.4469C7.64049 43.4819 7.27541 43.4038 6.95846 43.2231C6.64152 43.0424 6.38822 42.7681 6.23333 42.4378L4.77876 39.4136C4.60642 39.054 4.31974 38.7617 3.96357 38.5824L0.993694 37.0991C0.668503 36.9331 0.40068 36.6732 0.22495 36.3532C0.0492188 36.0331 -0.0263216 35.6677 0.00813203 35.3042C0.0425856 34.9407 0.185445 34.5959 0.418177 34.3146C0.65091 34.0333 0.962788 33.8284 1.31338 33.7264ZM47.5494 6.28792H44.9312H44.9248C45.2733 4.66223 46.1688 3.20523 47.4618 2.16004C48.7548 1.11485 50.3672 0.544678 52.0298 0.544678C53.6924 0.544678 55.3048 1.11485 56.5978 2.16004C57.8908 3.20523 58.7863 4.66223 59.1348 6.28792H56.5198C56.195 5.35732 55.5888 4.55079 54.7851 3.98011C53.9815 3.40942 53.0202 3.10283 52.0346 3.10283C51.0489 3.10283 50.0877 3.40942 49.2841 3.98011C48.4804 4.55079 47.8742 5.35732 47.5494 6.28792Z" fill="url(#paint0_linear_1_203)"/>
<path fill-rule="evenodd" clip-rule="evenodd" d="M79.6647 27.8465H85.8698C89.6187 27.8465 91.5037 25.8432 91.525 21.8364V15.2669C91.5059 11.2602 89.6208 9.25684 85.8698 9.25684H79.6647C75.918 9.25684 74.034 11.2602 74.0127 15.2669V21.8364C74.0319 25.8432 75.9159 27.8465 79.6647 27.8465ZM85.7164 14.4869H79.8182C79.7215 14.475 79.6234 14.484 79.5305 14.5132C79.4375 14.5425 79.352 14.5913 79.2796 14.6565C79.2071 14.7216 79.1495 14.8016 79.1107 14.8909C79.0718 14.9802 79.0525 15.0768 79.0541 15.1742V21.8364C79.0384 21.9411 79.0472 22.048 79.0798 22.1487C79.1124 22.2493 79.1679 22.3411 79.2419 22.4167C79.316 22.4923 79.4066 22.5497 79.5066 22.5843C79.6066 22.619 79.7132 22.63 79.8182 22.6165H85.7164C85.8215 22.6307 85.9284 22.6202 86.0287 22.5857C86.129 22.5513 86.2199 22.4939 86.2941 22.4182C86.3683 22.3424 86.4238 22.2504 86.4562 22.1494C86.4885 22.0484 86.4968 21.9412 86.4804 21.8364V15.2669C86.4968 15.1621 86.4885 15.055 86.4562 14.954C86.4238 14.853 86.3683 14.7609 86.2941 14.6852C86.2199 14.6094 86.129 14.552 86.0287 14.5176C85.9284 14.4832 85.8215 14.4727 85.7164 14.4869Z" fill="#151515"/>
<path fill-rule="evenodd" clip-rule="evenodd" d="M102.778 27.8465H108.983C112.732 27.8465 114.617 25.8432 114.639 21.8364V15.2669C114.615 11.2602 112.73 9.25684 108.983 9.25684H102.778C99.0273 9.25684 97.1422 11.2602 97.123 15.2669V21.8364C97.1444 25.8432 99.0294 27.8465 102.778 27.8465ZM108.83 14.4869H102.935C102.838 14.475 102.74 14.484 102.647 14.5132C102.554 14.5425 102.469 14.5913 102.396 14.6565C102.324 14.7216 102.266 14.8016 102.227 14.8909C102.189 14.9802 102.169 15.0768 102.171 15.1742V21.8364C102.155 21.9411 102.164 22.048 102.197 22.1487C102.229 22.2493 102.285 22.3411 102.359 22.4167C102.433 22.4923 102.523 22.5497 102.623 22.5843C102.723 22.619 102.83 22.63 102.935 22.6165H108.833C108.938 22.6307 109.045 22.6202 109.145 22.5857C109.246 22.5513 109.337 22.4939 109.411 22.4182C109.485 22.3424 109.541 22.2504 109.573 22.1494C109.605 22.0484 109.614 21.9412 109.597 21.8364V15.2669C109.614 15.1621 109.605 15.055 109.573 14.954C109.541 14.853 109.485 14.7609 109.411 14.6852C109.337 14.6094 109.246 14.552 109.145 14.5176C109.045 14.4832 108.938 14.4727 108.833 14.4869H108.83Z" fill="#151515"/>
<path fill-rule="evenodd" clip-rule="evenodd" d="M130.971 27.8784H130.987C131.319 27.8754 131.646 27.8001 131.946 27.6578C132.255 27.5187 132.539 27.3297 132.787 27.0984C133.033 26.8671 133.236 26.593 133.385 26.2896C133.532 25.9834 133.61 25.6481 133.612 25.3082V25.2922C133.613 24.6963 133.396 24.1206 133.001 23.6746L128.66 18.4733L133.001 13.3583C133.384 12.9148 133.591 12.346 133.583 11.7599C133.58 11.4214 133.508 11.0872 133.369 10.7785C133.231 10.468 133.033 10.1877 132.787 9.95368C132.538 9.72335 132.255 9.53446 131.946 9.39423C131.635 9.2491 131.295 9.17486 130.952 9.17684C130.581 9.16835 130.213 9.25414 129.884 9.4262C129.55 9.61384 129.25 9.85586 128.995 10.1423L124.9 15.9638V11.8079C124.924 11.4552 124.869 11.1018 124.739 10.773C124.61 10.4441 124.41 10.1479 124.152 9.90573C123.666 9.48092 123.039 9.2529 122.394 9.26636C121.739 9.24971 121.102 9.47768 120.607 9.90573C120.35 10.1479 120.149 10.4441 120.02 10.773C119.89 11.1018 119.835 11.4552 119.859 11.8079V25.257C119.835 25.6092 119.89 25.9622 120.019 26.2905C120.149 26.6189 120.349 26.9145 120.607 27.1559C121.099 27.5908 121.737 27.8248 122.394 27.8113C123.042 27.8216 123.669 27.5876 124.152 27.1559C124.41 26.9145 124.61 26.6189 124.74 26.2905C124.869 25.9622 124.924 25.6092 124.9 25.257V21.1523L129.027 26.881C129.252 27.1899 129.546 27.4414 129.886 27.6148C130.226 27.7881 130.602 27.8785 130.984 27.8784H130.971Z" fill="#151515"/>
<path fill-rule="evenodd" clip-rule="evenodd" d="M155.034 24.4641C155.178 24.7897 155.247 25.1431 155.236 25.4988C155.226 25.8544 155.136 26.2031 154.973 26.5197C154.669 27.083 154.168 27.5152 153.567 27.7345C152.955 27.9852 152.272 28.0023 151.649 27.7824C151.32 27.6525 151.027 27.4484 150.791 27.186C150.554 26.9237 150.382 26.6103 150.287 26.2703L149.919 25.3688H143.513L143.116 26.2703C143.02 26.6098 142.847 26.9226 142.611 27.1848C142.375 27.447 142.082 27.6514 141.754 27.7824C141.131 28.0023 140.448 27.9852 139.836 27.7345C139.234 27.516 138.734 27.0836 138.43 26.5197C138.267 26.2033 138.177 25.8545 138.166 25.4988C138.156 25.1431 138.225 24.7895 138.369 24.4641L141.118 18.2366C141.215 17.8963 141.387 17.5823 141.622 17.3181C141.858 17.054 142.15 16.8467 142.477 16.7117C143.098 16.4825 143.782 16.4939 144.395 16.7437C144.994 16.9827 145.491 17.4222 145.802 17.9873C145.964 18.3038 146.054 18.6526 146.064 19.0082C146.075 19.3638 146.006 19.7173 145.862 20.0429L145.543 20.727H148.02L144.75 12.7349C144.607 12.4092 144.538 12.0558 144.548 11.7002C144.559 11.3447 144.648 10.9959 144.811 10.6793C145.12 10.1136 145.618 9.67374 146.217 9.43571C146.83 9.18497 147.515 9.17356 148.135 9.40375C148.463 9.5389 148.755 9.74625 148.991 10.0103C149.227 10.2744 149.4 10.5883 149.497 10.9286L155.034 24.4641Z" fill="#151515"/>
<path fill-rule="evenodd" clip-rule="evenodd" d="M168.768 14.4261V25.2954C168.792 25.6475 168.737 26.0005 168.607 26.3289C168.478 26.6573 168.277 26.9528 168.02 27.1943C167.526 27.6291 166.888 27.863 166.23 27.8496C165.582 27.859 164.955 27.6251 164.472 27.1943C164.214 26.9528 164.013 26.6573 163.884 26.3289C163.755 26.0005 163.7 25.6475 163.723 25.2954V14.4261H161.952C161.605 14.4446 161.257 14.3857 160.935 14.2536C160.612 14.1214 160.323 13.9194 160.089 13.662C159.653 13.1553 159.414 12.5094 159.414 11.8414C159.414 11.1734 159.653 10.5275 160.089 10.0208C160.323 9.76343 160.612 9.56138 160.935 9.42925C161.257 9.29712 161.605 9.23821 161.952 9.25676H170.478C170.826 9.23821 171.174 9.29712 171.496 9.42925C171.818 9.56138 172.107 9.76343 172.342 10.0208C172.777 10.5275 173.017 11.1734 173.017 11.8414C173.017 12.5094 172.777 13.1553 172.342 13.662C172.107 13.9194 171.818 14.1214 171.496 14.2536C171.174 14.3857 170.826 14.4446 170.478 14.4261H168.768Z" fill="#151515"/>
<path fill-rule="evenodd" clip-rule="evenodd" d="M180.251 29.528H180.286C180.616 29.5267 180.942 29.4582 181.245 29.3266C181.853 29.0541 182.339 28.5653 182.607 27.9552C182.738 27.6524 182.805 27.326 182.805 26.9961C182.809 26.6578 182.745 26.322 182.616 26.009C182.488 25.6959 182.297 25.4119 182.057 25.1739C181.825 24.9335 181.547 24.7422 181.24 24.6116C180.933 24.4809 180.602 24.4136 180.268 24.4136C179.934 24.4136 179.604 24.4809 179.297 24.6116C178.989 24.7422 178.711 24.9335 178.48 25.1739C178.239 25.4119 178.049 25.6959 177.92 26.009C177.792 26.322 177.728 26.6578 177.732 26.9961C177.731 27.326 177.799 27.6524 177.93 27.9552C178.063 28.2557 178.249 28.5297 178.48 28.764C178.712 29.0016 178.988 29.1926 179.292 29.3266C179.594 29.4582 179.921 29.5267 180.251 29.528Z" fill="#151515"/>
<path fill-rule="evenodd" clip-rule="evenodd" d="M198.156 27.8783C198.488 27.8747 198.815 27.7995 199.115 27.6577C199.423 27.5185 199.706 27.3295 199.953 27.0982C200.2 26.8678 200.403 26.5936 200.551 26.2894C200.701 25.984 200.78 25.6484 200.781 25.308V25.292C200.783 24.6955 200.564 24.1194 200.167 23.6744L195.829 18.4731L200.167 13.3582C200.464 13.0102 200.656 12.5852 200.721 12.1326C200.786 11.68 200.721 11.2182 200.535 10.8007C200.399 10.4889 200.201 10.2082 199.953 9.97589C199.705 9.74563 199.423 9.55673 199.115 9.41644C198.804 9.27172 198.464 9.1975 198.121 9.19906C197.749 9.19058 197.38 9.27636 197.05 9.44841C196.717 9.63615 196.418 9.87818 196.164 10.1645L192.069 15.986V11.8301C192.093 11.4775 192.038 11.124 191.908 10.7952C191.779 10.4663 191.579 10.1701 191.321 9.92794C190.835 9.50368 190.208 9.27574 189.563 9.28857C188.908 9.27162 188.271 9.49963 187.776 9.92794C187.518 10.17 187.317 10.466 187.187 10.7949C187.057 11.1237 187.002 11.4772 187.025 11.8301V25.2792C187.001 25.6316 187.057 25.9848 187.187 26.3132C187.317 26.6416 187.518 26.937 187.776 27.1781C188.268 27.6133 188.906 27.8473 189.563 27.8335C190.21 27.8432 190.838 27.6093 191.321 27.1781C191.579 26.9367 191.779 26.6411 191.909 26.3127C192.038 25.9844 192.093 25.6314 192.069 25.2792V21.1521L196.196 26.8808C196.42 27.1899 196.713 27.4415 197.053 27.6149C197.392 27.7883 197.768 27.8786 198.15 27.8783H198.156Z" fill="#151515"/>
<path fill-rule="evenodd" clip-rule="evenodd" d="M222.98 25.3241V19.0039C223.004 18.6518 222.949 18.2988 222.819 17.9704C222.69 17.642 222.489 17.3464 222.232 17.105C221.75 16.6738 221.123 16.4398 220.477 16.4496C219.819 16.4357 219.18 16.6696 218.687 17.105C218.429 17.3464 218.229 17.642 218.099 17.9704C217.97 18.2988 217.915 18.6518 217.939 19.0039V22.6164H211.615C211.51 22.6299 211.404 22.6189 211.304 22.5842C211.204 22.5496 211.113 22.4922 211.039 22.4166C210.965 22.341 210.909 22.2492 210.877 22.1485C210.844 22.0479 210.835 21.941 210.851 21.8363V15.1741C210.85 15.0767 210.869 14.9801 210.908 14.8908C210.947 14.8015 211.004 14.7215 211.077 14.6564C211.149 14.5912 211.235 14.5424 211.328 14.5131C211.42 14.4839 211.519 14.4749 211.615 14.4868H219.745C221.876 14.5081 222.942 13.6364 222.942 11.8717C222.942 10.1071 221.876 9.23542 219.745 9.25673H211.471C207.725 9.25673 205.841 11.2601 205.819 15.2668V21.8363C205.839 25.8431 207.723 27.8464 211.471 27.8464H219.754C220.918 27.8656 221.746 27.6578 222.245 27.223C222.502 26.9816 222.703 26.686 222.832 26.3576C222.962 26.0293 223.016 25.6763 222.993 25.3241H222.98Z" fill="#151515"/>
<path d="M77.0432 35.7906C77.3626 35.8667 77.65 36.0411 77.8648 36.2893C78.0708 36.5184 78.1847 36.8156 78.1845 37.1237C78.1854 37.3168 78.1438 37.5077 78.0626 37.6828C77.9814 37.858 77.8625 38.0131 77.7146 38.1371C77.4051 38.4172 77.0002 38.5682 76.5829 38.5591H74.0254V33.1884H76.3975C76.7978 33.1828 77.1857 33.3277 77.4844 33.5944C77.6263 33.7142 77.7405 33.8635 77.8189 34.0319C77.8973 34.2002 77.938 34.3837 77.9383 34.5694C77.9409 34.8331 77.8566 35.0904 77.6986 35.3015C77.5357 35.5214 77.3141 35.691 77.0592 35.7906H77.0432ZM76.3847 33.4505H74.3259V35.6883H76.3815C76.6995 35.6964 77.0086 35.582 77.2446 35.3686C77.36 35.2699 77.4527 35.1473 77.5162 35.0094C77.5798 34.8714 77.6127 34.7213 77.6127 34.5694C77.6127 34.4175 77.5798 34.2674 77.5162 34.1295C77.4527 33.9915 77.36 33.8689 77.2446 33.7702C77.0093 33.5557 76.6998 33.4411 76.3815 33.4505H76.3847ZM76.5797 38.3001C76.915 38.3071 77.2402 38.1846 77.4876 37.9581C77.6063 37.8546 77.7014 37.7268 77.7666 37.5834C77.8318 37.4401 77.8655 37.2844 77.8655 37.1269C77.8655 36.9694 77.8318 36.8137 77.7666 36.6704C77.7014 36.527 77.6063 36.3993 77.4876 36.2957C77.2421 36.0657 76.9159 35.9417 76.5797 35.9505H74.3419V38.3001H76.5797Z" fill="#151515" fill-opacity="0.48"/>
<path d="M83.834 38.5591V38.3065L86.0718 36.203C86.7516 35.5636 87.0916 35.0308 87.0916 34.6046C87.0976 34.4365 87.065 34.2692 86.9963 34.1157C86.9276 33.9622 86.8246 33.8265 86.6952 33.719C86.4952 33.5769 86.2681 33.4777 86.028 33.4275C85.7878 33.3773 85.54 33.3773 85.2998 33.4274C85.0597 33.4776 84.8325 33.5768 84.6326 33.7188C84.4326 33.8609 84.2641 34.0427 84.1377 34.2529L83.8787 34.1154C84.0363 33.8019 84.2863 33.5442 84.5948 33.377C84.9251 33.2009 85.2948 33.1118 85.669 33.118C86.1146 33.1048 86.5509 33.2472 86.903 33.5208C87.0667 33.6488 87.1978 33.8137 87.2856 34.0021C87.3734 34.1904 87.4153 34.3969 87.4081 34.6046C87.4081 35.1001 87.0372 35.7043 86.2924 36.4076L84.272 38.3033H87.5679V38.5719L83.834 38.5591Z" fill="#151515" fill-opacity="0.48"/>
<path d="M96.6213 35.7906C96.941 35.8658 97.2287 36.0404 97.4429 36.2893C97.65 36.5178 97.764 36.8154 97.7626 37.1237C97.7638 37.3171 97.722 37.5084 97.6402 37.6837C97.5584 37.859 97.4386 38.0138 97.2895 38.1371C96.9808 38.4164 96.5772 38.5673 96.161 38.5591H93.6035V33.1884H95.9756C96.376 33.1828 96.7638 33.3277 97.0625 33.5944C97.2044 33.7142 97.3186 33.8635 97.397 34.0319C97.4754 34.2002 97.5162 34.3837 97.5165 34.5694C97.519 34.8331 97.4348 35.0904 97.2767 35.3015C97.1138 35.5214 96.8922 35.691 96.6373 35.7906H96.6213ZM95.9628 33.4505H93.9104V35.6883H95.9628C96.2819 35.6969 96.5921 35.5824 96.8291 35.3686C96.9436 35.2693 97.0354 35.1465 97.0983 35.0087C97.1612 34.8708 97.1938 34.721 97.1938 34.5694C97.1938 34.4179 97.1612 34.2681 97.0983 34.1302C97.0354 33.9923 96.9436 33.8695 96.8291 33.7702C96.5928 33.5552 96.2821 33.4406 95.9628 33.4505ZM96.161 38.3001C96.4962 38.3065 96.8212 38.184 97.0689 37.9581C97.1867 37.854 97.281 37.7261 97.3456 37.5828C97.4102 37.4395 97.4436 37.2841 97.4436 37.1269C97.4436 36.9697 97.4102 36.8143 97.3456 36.671C97.281 36.5277 97.1867 36.3998 97.0689 36.2957C96.8224 36.0675 96.4969 35.9437 96.161 35.9505H93.9232V38.3001H96.161Z" fill="#151515" fill-opacity="0.48"/>
<path d="M116.442 33.1885V38.5592H116.125V33.6041L113.795 37.0183H113.718L111.391 33.6041V38.5592H111.074V33.1885H111.477L113.763 36.5484L116.049 33.1885H116.442Z" fill="#151515" fill-opacity="0.48"/>
<path d="M126.962 38.5592L126.345 37.1398H123.206L122.598 38.5592H122.263L124.609 33.1885H124.951L127.307 38.5592H126.962ZM123.314 36.8808H126.236L124.772 33.5178L123.314 36.8808Z" fill="#151515" fill-opacity="0.48"/>
<path d="M137.365 38.5591H137.013L135.533 36.3213H133.426V38.5591H133.106V33.1884H135.453C135.905 33.1789 136.344 33.3424 136.681 33.6455C136.828 33.771 136.949 33.9248 137.036 34.0978C137.123 34.2709 137.174 34.4596 137.186 34.6529C137.199 34.8461 137.173 35.0399 137.109 35.2227C137.045 35.4055 136.945 35.5737 136.815 35.7171C136.563 36.0009 136.227 36.196 135.856 36.2733L137.361 38.5591H137.365ZM133.426 36.0496H135.456C135.827 36.0563 136.186 35.9188 136.457 35.6659C136.589 35.5523 136.696 35.411 136.768 35.2519C136.84 35.0929 136.877 34.92 136.876 34.7452C136.877 34.5714 136.841 34.3993 136.768 34.2412C136.696 34.0832 136.59 33.9431 136.457 33.8309C136.185 33.5793 135.826 33.4429 135.456 33.4505H133.426V36.0496Z" fill="#151515" fill-opacity="0.48"/>
<path d="M147.176 38.5592H146.763L143.554 35.8738V38.5592H143.237V33.1885H143.554V35.7204L146.68 33.1885H147.09L143.896 35.7971L147.176 38.5592Z" fill="#151515" fill-opacity="0.48"/>
<path d="M153.221 38.297H156.303V38.5592H152.901V33.1885H156.258V33.4506H153.221V35.7204H156.044V35.9825H153.221V38.297Z" fill="#151515" fill-opacity="0.48"/>
<path d="M165.941 33.1885V33.4506H164.014V38.5592H163.707V33.4506H161.782V33.1885H165.941Z" fill="#151515" fill-opacity="0.48"/>
<path d="M181.028 33.1883C181.513 33.1721 181.988 33.3374 182.358 33.6519C182.524 33.7991 182.656 33.9798 182.747 34.1821C182.838 34.3843 182.885 34.6035 182.885 34.8251C182.885 35.0468 182.838 35.266 182.747 35.4682C182.656 35.6704 182.524 35.8511 182.358 35.9984C181.989 36.3151 181.514 36.4817 181.028 36.4651H179.401V38.5591H179.081V33.1883H181.028ZM181.028 36.203C181.432 36.217 181.826 36.0777 182.131 35.813C182.269 35.6883 182.379 35.5361 182.454 35.3662C182.53 35.1964 182.569 35.0126 182.569 34.8267C182.569 34.6409 182.53 34.4571 182.454 34.2872C182.379 34.1174 182.269 33.9652 182.131 33.8405C181.826 33.5758 181.432 33.4365 181.028 33.4505H179.401V36.203H181.028Z" fill="#151515" fill-opacity="0.48"/>
<path d="M189.237 38.297H192.147V38.5592H188.921V33.1885H189.237V38.297Z" fill="#151515" fill-opacity="0.48"/>
<path d="M202.105 38.5592L201.488 37.1398H198.345L197.725 38.5592H197.405L199.752 33.1885H200.094L202.447 38.5592H202.105ZM198.457 36.8808H201.376L199.912 33.5178L198.457 36.8808Z" fill="#151515" fill-opacity="0.48"/>
<path d="M211.017 38.6453C210.195 38.6773 209.392 38.3884 208.779 37.8397C208.501 37.5937 208.278 37.2914 208.125 36.9527C207.973 36.614 207.894 36.2468 207.894 35.8752C207.894 35.5037 207.973 35.1365 208.125 34.7978C208.278 34.4591 208.501 34.1568 208.779 33.9108C209.392 33.3621 210.195 33.0732 211.017 33.1052C211.531 33.1013 212.038 33.2197 212.497 33.4504C212.927 33.6573 213.293 33.9752 213.559 34.3711L213.284 34.515C213.051 34.1583 212.726 33.8711 212.344 33.6838C211.808 33.4231 211.209 33.3236 210.618 33.3974C210.027 33.4712 209.471 33.7151 209.016 34.0994C208.767 34.3236 208.568 34.5975 208.432 34.9035C208.296 35.2094 208.226 35.5404 208.226 35.8752C208.226 36.2101 208.296 36.5411 208.432 36.847C208.568 37.153 208.767 37.4269 209.016 37.6511C209.564 38.1422 210.281 38.4023 211.017 38.3768C211.487 38.3803 211.951 38.2706 212.369 38.0571C212.757 37.8674 213.081 37.5699 213.303 37.2003L213.584 37.341C213.326 37.752 212.96 38.0839 212.526 38.3001C212.059 38.5397 211.542 38.6626 211.017 38.6581V38.6453Z" fill="#151515" fill-opacity="0.48"/>
<path d="M219.901 38.297H222.983V38.5592H219.585V33.1885H222.942V33.4506H219.901V35.7204H222.727V35.9825H219.901V38.297Z" fill="#151515" fill-opacity="0.48"/>
<path d="M77.0432 35.7906C77.3626 35.8667 77.65 36.0411 77.8648 36.2893C78.0708 36.5184 78.1847 36.8156 78.1845 37.1237C78.1854 37.3168 78.1438 37.5077 78.0626 37.6828C77.9814 37.858 77.8625 38.0131 77.7146 38.1371C77.4051 38.4172 77.0002 38.5682 76.5829 38.5591H74.0254V33.1884H76.3975C76.7978 33.1828 77.1857 33.3277 77.4844 33.5944C77.6263 33.7142 77.7405 33.8635 77.8189 34.0319C77.8973 34.2002 77.938 34.3837 77.9383 34.5694C77.9409 34.8331 77.8566 35.0904 77.6986 35.3015C77.5357 35.5214 77.3141 35.691 77.0592 35.7906H77.0432ZM76.3847 33.4505H74.3259V35.6883H76.3815C76.6995 35.6964 77.0086 35.582 77.2446 35.3686C77.36 35.2699 77.4527 35.1473 77.5162 35.0094C77.5798 34.8714 77.6127 34.7213 77.6127 34.5694C77.6127 34.4175 77.5798 34.2674 77.5162 34.1295C77.4527 33.9915 77.36 33.8689 77.2446 33.7702C77.0093 33.5557 76.6998 33.4411 76.3815 33.4505H76.3847ZM76.5797 38.3001C76.915 38.3071 77.2402 38.1846 77.4876 37.9581C77.6063 37.8546 77.7014 37.7268 77.7666 37.5834C77.8318 37.4401 77.8655 37.2844 77.8655 37.1269C77.8655 36.9694 77.8318 36.8137 77.7666 36.6704C77.7014 36.527 77.6063 36.3993 77.4876 36.2957C77.2421 36.0657 76.9159 35.9417 76.5797 35.9505H74.3419V38.3001H76.5797Z" fill="#151515" fill-opacity="0.48"/>
<path d="M83.834 38.5591V38.3065L86.0718 36.203C86.7516 35.5636 87.0916 35.0308 87.0916 34.6046C87.0976 34.4365 87.065 34.2692 86.9963 34.1157C86.9276 33.9622 86.8246 33.8265 86.6952 33.719C86.4952 33.5769 86.2681 33.4777 86.028 33.4275C85.7878 33.3773 85.54 33.3773 85.2998 33.4274C85.0597 33.4776 84.8325 33.5768 84.6326 33.7188C84.4326 33.8609 84.2641 34.0427 84.1377 34.2529L83.8787 34.1154C84.0363 33.8019 84.2863 33.5442 84.5948 33.377C84.9251 33.2009 85.2948 33.1118 85.669 33.118C86.1146 33.1048 86.5509 33.2472 86.903 33.5208C87.0667 33.6488 87.1978 33.8137 87.2856 34.0021C87.3734 34.1904 87.4153 34.3969 87.4081 34.6046C87.4081 35.1001 87.0372 35.7043 86.2924 36.4076L84.272 38.3033H87.5679V38.5719L83.834 38.5591Z" fill="#151515" fill-opacity="0.48"/>
<path d="M96.6213 35.7906C96.941 35.8658 97.2287 36.0404 97.4429 36.2893C97.65 36.5178 97.764 36.8154 97.7626 37.1237C97.7638 37.3171 97.722 37.5084 97.6402 37.6837C97.5584 37.859 97.4386 38.0138 97.2895 38.1371C96.9808 38.4164 96.5772 38.5673 96.161 38.5591H93.6035V33.1884H95.9756C96.376 33.1828 96.7638 33.3277 97.0625 33.5944C97.2044 33.7142 97.3186 33.8635 97.397 34.0319C97.4754 34.2002 97.5162 34.3837 97.5165 34.5694C97.519 34.8331 97.4348 35.0904 97.2767 35.3015C97.1138 35.5214 96.8922 35.691 96.6373 35.7906H96.6213ZM95.9628 33.4505H93.9104V35.6883H95.9628C96.2819 35.6969 96.5921 35.5824 96.8291 35.3686C96.9436 35.2693 97.0354 35.1465 97.0983 35.0087C97.1612 34.8708 97.1938 34.721 97.1938 34.5694C97.1938 34.4179 97.1612 34.2681 97.0983 34.1302C97.0354 33.9923 96.9436 33.8695 96.8291 33.7702C96.5928 33.5552 96.2821 33.4406 95.9628 33.4505ZM96.161 38.3001C96.4962 38.3065 96.8212 38.184 97.0689 37.9581C97.1867 37.854 97.281 37.7261 97.3456 37.5828C97.4102 37.4395 97.4436 37.2841 97.4436 37.1269C97.4436 36.9697 97.4102 36.8143 97.3456 36.671C97.281 36.5277 97.1867 36.3998 97.0689 36.2957C96.8224 36.0675 96.4969 35.9437 96.161 35.9505H93.9232V38.3001H96.161Z" fill="#151515" fill-opacity="0.48"/>
<path d="M116.442 33.1885V38.5592H116.125V33.6041L113.795 37.0183H113.718L111.391 33.6041V38.5592H111.074V33.1885H111.477L113.763 36.5484L116.049 33.1885H116.442Z" fill="#151515" fill-opacity="0.48"/>
<path d="M126.962 38.5592L126.345 37.1398H123.206L122.598 38.5592H122.263L124.609 33.1885H124.951L127.307 38.5592H126.962ZM123.314 36.8808H126.236L124.772 33.5178L123.314 36.8808Z" fill="#151515" fill-opacity="0.48"/>
<path d="M137.365 38.5591H137.013L135.533 36.3213H133.426V38.5591H133.106V33.1884H135.453C135.905 33.1789 136.344 33.3424 136.681 33.6455C136.828 33.771 136.949 33.9248 137.036 34.0978C137.123 34.2709 137.174 34.4596 137.186 34.6529C137.199 34.8461 137.173 35.0399 137.109 35.2227C137.045 35.4055 136.945 35.5737 136.815 35.7171C136.563 36.0009 136.227 36.196 135.856 36.2733L137.361 38.5591H137.365ZM133.426 36.0496H135.456C135.827 36.0563 136.186 35.9188 136.457 35.6659C136.589 35.5523 136.696 35.411 136.768 35.2519C136.84 35.0929 136.877 34.92 136.876 34.7452C136.877 34.5714 136.841 34.3993 136.768 34.2412C136.696 34.0832 136.59 33.9431 136.457 33.8309C136.185 33.5793 135.826 33.4429 135.456 33.4505H133.426V36.0496Z" fill="#151515" fill-opacity="0.48"/>
<path d="M147.176 38.5592H146.763L143.554 35.8738V38.5592H143.237V33.1885H143.554V35.7204L146.68 33.1885H147.09L143.896 35.7971L147.176 38.5592Z" fill="#151515" fill-opacity="0.48"/>
<path d="M153.221 38.297H156.303V38.5592H152.901V33.1885H156.258V33.4506H153.221V35.7204H156.044V35.9825H153.221V38.297Z" fill="#151515" fill-opacity="0.48"/>
<path d="M165.941 33.1885V33.4506H164.014V38.5592H163.707V33.4506H161.782V33.1885H165.941Z" fill="#151515" fill-opacity="0.48"/>
<path d="M181.028 33.1883C181.513 33.1721 181.988 33.3374 182.358 33.6519C182.524 33.7991 182.656 33.9798 182.747 34.1821C182.838 34.3843 182.885 34.6035 182.885 34.8251C182.885 35.0468 182.838 35.266 182.747 35.4682C182.656 35.6704 182.524 35.8511 182.358 35.9984C181.989 36.3151 181.514 36.4817 181.028 36.4651H179.401V38.5591H179.081V33.1883H181.028ZM181.028 36.203C181.432 36.217 181.826 36.0777 182.131 35.813C182.269 35.6883 182.379 35.5361 182.454 35.3662C182.53 35.1964 182.569 35.0126 182.569 34.8267C182.569 34.6409 182.53 34.4571 182.454 34.2872C182.379 34.1174 182.269 33.9652 182.131 33.8405C181.826 33.5758 181.432 33.4365 181.028 33.4505H179.401V36.203H181.028Z" fill="#151515" fill-opacity="0.48"/>
<path d="M189.237 38.297H192.147V38.5592H188.921V33.1885H189.237V38.297Z" fill="#151515" fill-opacity="0.48"/>
<path d="M202.105 38.5592L201.488 37.1398H198.345L197.725 38.5592H197.405L199.752 33.1885H200.094L202.447 38.5592H202.105ZM198.457 36.8808H201.376L199.912 33.5178L198.457 36.8808Z" fill="#151515" fill-opacity="0.48"/>
<path d="M211.017 38.6453C210.195 38.6773 209.392 38.3884 208.779 37.8397C208.501 37.5937 208.278 37.2914 208.125 36.9527C207.973 36.614 207.894 36.2468 207.894 35.8752C207.894 35.5037 207.973 35.1365 208.125 34.7978C208.278 34.4591 208.501 34.1568 208.779 33.9108C209.392 33.3621 210.195 33.0732 211.017 33.1052C211.531 33.1013 212.038 33.2197 212.497 33.4504C212.927 33.6573 213.293 33.9752 213.559 34.3711L213.284 34.515C213.051 34.1583 212.726 33.8711 212.344 33.6838C211.808 33.4231 211.209 33.3236 210.618 33.3974C210.027 33.4712 209.471 33.7151 209.016 34.0994C208.767 34.3236 208.568 34.5975 208.432 34.9035C208.296 35.2094 208.226 35.5404 208.226 35.8752C208.226 36.2101 208.296 36.5411 208.432 36.847C208.568 37.153 208.767 37.4269 209.016 37.6511C209.564 38.1422 210.281 38.4023 211.017 38.3768C211.487 38.3803 211.951 38.2706 212.369 38.0571C212.757 37.8674 213.081 37.5699 213.303 37.2003L213.584 37.341C213.326 37.752 212.96 38.0839 212.526 38.3001C212.059 38.5397 211.542 38.6626 211.017 38.6581V38.6453Z" fill="#151515" fill-opacity="0.48"/>
<path d="M219.901 38.297H222.983V38.5592H219.585V33.1885H222.942V33.4506H219.901V35.7204H222.727V35.9825H219.901V38.297Z" fill="#151515" fill-opacity="0.48"/>
<defs>
<linearGradient id="paint0_linear_1_203" x1="6.75249" y1="6.50444" x2="38.2885" y2="50.6682" gradientUnits="userSpaceOnUse">
<stop stop-color="#3CE900"/>
<stop offset="0.492673" stop-color="#00F4B9"/>
<stop offset="1" stop-color="#FAFF00"/>
</linearGradient>
</defs>
</svg>
