<svg width="80" height="49" viewBox="0 0 80 49" fill="none" xmlns="http://www.w3.org/2000/svg">
<path d="M33 19H47V21H33V19ZM40 16C37.8783 16 35.8434 15.1571 34.3431 13.6569C32.8429 12.1566 32 10.1217 32 8C32 5.87827 32.8429 3.84344 34.3431 2.34315C35.8434 0.842855 37.8783 0 40 0C42.1217 0 44.1566 0.842855 45.6569 2.34315C47.1571 3.84344 48 5.87827 48 8C48 10.1217 47.1571 12.1566 45.6569 13.6569C44.1566 15.1571 42.1217 16 40 16ZM40 14C41.5913 14 43.1174 13.3679 44.2426 12.2426C45.3679 11.1174 46 9.5913 46 8C46 6.4087 45.3679 4.88258 44.2426 3.75736C43.1174 2.63214 41.5913 2 40 2C38.4087 2 36.8826 2.63214 35.7574 3.75736C34.6321 4.88258 34 6.4087 34 8C34 9.5913 34.6321 11.1174 35.7574 12.2426C36.8826 13.3679 38.4087 14 40 14Z" fill="#151515"/>
<path d="M25.0225 44H20.9688V34.1357H25.0088C25.8792 34.1357 26.5788 34.3613 27.1074 34.8125C27.6361 35.2591 27.9004 35.8538 27.9004 36.5967C27.9004 37.1208 27.7318 37.5902 27.3945 38.0049C27.0573 38.415 26.6426 38.6611 26.1504 38.7432V38.7979C26.8203 38.8753 27.3604 39.1351 27.7705 39.5771C28.1852 40.0146 28.3926 40.5592 28.3926 41.2109C28.3926 42.0814 28.0941 42.765 27.4971 43.2617C26.9001 43.7539 26.0752 44 25.0225 44ZM22.5 35.3867V38.333H24.3115C24.9769 38.333 25.4873 38.2008 25.8428 37.9365C26.1982 37.6722 26.376 37.2962 26.376 36.8086C26.376 36.3529 26.2233 36.002 25.918 35.7559C25.6172 35.5098 25.1888 35.3867 24.6328 35.3867H22.5ZM22.5 42.749H24.7148C25.403 42.749 25.9271 42.61 26.2871 42.332C26.6471 42.054 26.8271 41.6484 26.8271 41.1152C26.8271 40.582 26.6403 40.181 26.2666 39.9121C25.8975 39.6387 25.3506 39.502 24.626 39.502H22.5V42.749ZM35.4678 43.0635C34.8389 43.7471 33.9867 44.0889 32.9111 44.0889C31.8356 44.0889 30.9811 43.7471 30.3477 43.0635C29.7142 42.3799 29.3975 41.4548 29.3975 40.2881C29.3975 39.126 29.7142 38.2008 30.3477 37.5127C30.9857 36.8245 31.8402 36.4805 32.9111 36.4805C33.9821 36.4805 34.8343 36.8245 35.4678 37.5127C36.1012 38.1963 36.418 39.1214 36.418 40.2881C36.418 41.4548 36.1012 42.3799 35.4678 43.0635ZM31.4346 42.1816C31.79 42.6328 32.2822 42.8584 32.9111 42.8584C33.54 42.8584 34.0299 42.6328 34.3809 42.1816C34.7363 41.7305 34.9141 41.0993 34.9141 40.2881C34.9141 39.4769 34.7363 38.8457 34.3809 38.3945C34.0299 37.9388 33.54 37.7109 32.9111 37.7109C32.2822 37.7109 31.79 37.9388 31.4346 38.3945C31.0791 38.8503 30.9014 39.4814 30.9014 40.2881C30.9014 41.0947 31.0791 41.7259 31.4346 42.1816ZM38.7627 33.3154H39.7607C39.7653 33.7074 39.8838 34.0309 40.1162 34.2861C40.3486 34.5413 40.654 34.6689 41.0322 34.6689C41.415 34.6689 41.7227 34.5413 41.9551 34.2861C42.1875 34.0309 42.306 33.7074 42.3105 33.3154H43.3086C43.3086 33.9626 43.099 34.4867 42.6797 34.8877C42.2604 35.2842 41.7113 35.4824 41.0322 35.4824C40.3577 35.4824 39.8109 35.2842 39.3916 34.8877C38.9723 34.4867 38.7627 33.9626 38.7627 33.3154ZM39.2139 44H37.7578V36.5762H39.2139V41.8262H39.2686L42.8164 36.5762H44.2725V44H42.8164V38.7295H42.7617L39.2139 44ZM51.5459 36.5762V37.752H49.2012V44H47.7383V37.752H45.3936V36.5762H51.5459ZM54.1162 44H52.6602V36.5762H54.1162V41.8262H54.1709L57.7188 36.5762H59.1748V44H57.7188V38.7295H57.6641L54.1162 44Z" fill="#151515"/>
</svg>
