<svg width="80" height="49" viewBox="0 0 80 49" fill="none" xmlns="http://www.w3.org/2000/svg">
<path d="M33 0H47C47.2652 0 48 2.45273e-05 48 2.45273e-05C48 2.45273e-05 48 0.734784 48 1V20.143C48.0001 20.2324 48 21 48 21L40 16.03L32 21C32 21 32.0001 20.2323 32 20.143V1C32 0.734784 32 2.45273e-05 32 2.45273e-05C32 2.45273e-05 32.7348 0 33 0ZM46 2H34V17.432L40 13.671L46 17.432V2Z" fill="#151515"/>
<path d="M11.084 44V36.5762H10.9814L5.95703 44H4.4668V34.1357H5.98438V41.5801H6.08691L11.1113 34.1357H12.6016V44H11.084ZM17.0723 44.1367C16.2064 44.1367 15.4977 43.9408 14.9463 43.5488C14.3949 43.1523 14.085 42.6169 14.0166 41.9424H15.4795C15.557 42.266 15.7324 42.5143 16.0059 42.6875C16.2839 42.8607 16.6393 42.9473 17.0723 42.9473C17.5599 42.9473 17.9382 42.8447 18.207 42.6396C18.4805 42.43 18.6172 42.1543 18.6172 41.8125C18.6172 41.0788 18.1022 40.7119 17.0723 40.7119H15.9854V39.6113H17.0518C17.9404 39.6113 18.3848 39.2764 18.3848 38.6064C18.3848 38.3057 18.2731 38.0664 18.0498 37.8887C17.8311 37.7064 17.5098 37.6152 17.0859 37.6152C16.6712 37.6152 16.3317 37.6995 16.0674 37.8682C15.8031 38.0368 15.6458 38.2692 15.5957 38.5654H14.1738C14.2513 37.9092 14.5498 37.3896 15.0693 37.0068C15.5889 36.624 16.2588 36.4326 17.0791 36.4326C17.9541 36.4326 18.6309 36.6172 19.1094 36.9863C19.5879 37.3555 19.8271 37.8522 19.8271 38.4766C19.8271 38.8548 19.7178 39.1921 19.499 39.4883C19.2803 39.7799 18.9886 39.9691 18.624 40.0557V40.1104C19.098 40.2243 19.458 40.4271 19.7041 40.7188C19.9548 41.0104 20.0801 41.3704 20.0801 41.7988C20.0801 42.5052 19.8066 43.0726 19.2598 43.501C18.7129 43.9248 17.9837 44.1367 17.0723 44.1367ZM24.7422 44.1436C23.5801 44.1436 22.696 43.7653 22.0898 43.0088C21.4837 42.2523 21.1807 41.1403 21.1807 39.6729C21.1807 38.2738 21.3197 37.1458 21.5977 36.2891C21.8757 35.4277 22.3063 34.7897 22.8896 34.375C23.473 33.9603 24.2432 33.7347 25.2002 33.6982L25.8428 33.6777C26.2347 33.6595 26.6107 33.6162 26.9707 33.5479C27.3353 33.4795 27.6064 33.3997 27.7842 33.3086V34.5391C27.6794 34.6302 27.4515 34.7168 27.1006 34.7988C26.7497 34.8763 26.3577 34.9242 25.9248 34.9424L25.2891 34.9629C24.7878 34.9811 24.3685 35.0518 24.0312 35.1748C23.694 35.2979 23.4137 35.4938 23.1904 35.7627C22.9717 36.027 22.8008 36.3438 22.6777 36.7129C22.5547 37.082 22.4567 37.5492 22.3838 38.1143H22.4385C22.6755 37.6768 23.0127 37.3418 23.4502 37.1094C23.8877 36.877 24.3981 36.7607 24.9814 36.7607C25.984 36.7607 26.7816 37.0866 27.374 37.7383C27.971 38.3854 28.2695 39.2604 28.2695 40.3633C28.2695 41.5299 27.9528 42.4528 27.3193 43.1318C26.6904 43.8063 25.8314 44.1436 24.7422 44.1436ZM24.7285 42.8926C25.3711 42.8926 25.8701 42.6738 26.2256 42.2363C26.5811 41.7988 26.7588 41.179 26.7588 40.377C26.7588 39.6159 26.5811 39.0257 26.2256 38.6064C25.8701 38.1872 25.3711 37.9775 24.7285 37.9775C24.0859 37.9775 23.5869 38.1872 23.2314 38.6064C22.876 39.0257 22.6982 39.6159 22.6982 40.377C22.6982 41.179 22.8737 41.7988 23.2246 42.2363C23.5801 42.6738 24.0814 42.8926 24.7285 42.8926ZM33.4375 36.501C34.3854 36.501 35.1442 36.8451 35.7139 37.5332C36.2881 38.2214 36.5752 39.1396 36.5752 40.2881C36.5752 41.432 36.2904 42.3503 35.7207 43.043C35.1556 43.7311 34.4059 44.0752 33.4717 44.0752C32.9385 44.0752 32.4691 43.9635 32.0635 43.7402C31.6579 43.5124 31.3434 43.1934 31.1201 42.7832H31.0928V46.4268H29.6094V36.5762H31.0381V37.8066H31.0723C31.2819 37.4056 31.5986 37.0889 32.0225 36.8564C32.4508 36.6195 32.9225 36.501 33.4375 36.501ZM33.0615 42.8174C33.6631 42.8174 34.1462 42.5872 34.5107 42.127C34.8753 41.6667 35.0576 41.0537 35.0576 40.2881C35.0576 39.5225 34.8753 38.9095 34.5107 38.4492C34.1462 37.9889 33.6631 37.7588 33.0615 37.7588C32.4736 37.7588 31.9974 37.9912 31.6328 38.4561C31.2682 38.9209 31.0837 39.5316 31.0791 40.2881C31.0837 41.0492 31.266 41.6621 31.626 42.127C31.9906 42.5872 32.4691 42.8174 33.0615 42.8174ZM40.4854 42.8926C41.0368 42.8926 41.4971 42.7354 41.8662 42.4209C42.2354 42.1019 42.4199 41.6986 42.4199 41.2109V40.6299L40.6152 40.7529C39.5898 40.8167 39.0771 41.1813 39.0771 41.8467C39.0771 42.1657 39.2048 42.4209 39.46 42.6123C39.7152 42.7992 40.057 42.8926 40.4854 42.8926ZM40.0889 44.0752C39.346 44.0752 38.7422 43.8747 38.2773 43.4736C37.8125 43.068 37.5801 42.5348 37.5801 41.874C37.5801 41.2269 37.8216 40.7188 38.3047 40.3496C38.7923 39.9805 39.4964 39.7663 40.417 39.707L42.4199 39.5908V39.0166C42.4199 38.5928 42.2832 38.2692 42.0098 38.0459C41.7409 37.818 41.3581 37.7041 40.8613 37.7041C40.4603 37.7041 40.1208 37.7998 39.8428 37.9912C39.5693 38.1826 39.4007 38.4401 39.3369 38.7637H37.9492C37.972 38.1074 38.2614 37.5628 38.8174 37.1299C39.3734 36.6969 40.0684 36.4805 40.9023 36.4805C41.8092 36.4805 42.5316 36.7015 43.0693 37.1436C43.6117 37.5856 43.8828 38.1735 43.8828 38.9072V44H42.4678V42.7627H42.4336C42.2285 43.1637 41.9141 43.4827 41.4902 43.7197C41.0664 43.9567 40.5993 44.0752 40.0889 44.0752ZM50.3906 44V40.7461H46.9111V44H45.4414V36.5762H46.9111V39.5703H50.3906V36.5762H51.8604V44H50.3906ZM58.4707 44V40.7461H54.9912V44H53.5215V36.5762H54.9912V39.5703H58.4707V36.5762H59.9404V44H58.4707ZM67.3369 43.0635C66.708 43.7471 65.8558 44.0889 64.7803 44.0889C63.7048 44.0889 62.8503 43.7471 62.2168 43.0635C61.5833 42.3799 61.2666 41.4548 61.2666 40.2881C61.2666 39.126 61.5833 38.2008 62.2168 37.5127C62.8548 36.8245 63.7093 36.4805 64.7803 36.4805C65.8512 36.4805 66.7035 36.8245 67.3369 37.5127C67.9704 38.1963 68.2871 39.1214 68.2871 40.2881C68.2871 41.4548 67.9704 42.3799 67.3369 43.0635ZM63.3037 42.1816C63.6592 42.6328 64.1514 42.8584 64.7803 42.8584C65.4092 42.8584 65.8991 42.6328 66.25 42.1816C66.6055 41.7305 66.7832 41.0993 66.7832 40.2881C66.7832 39.4769 66.6055 38.8457 66.25 38.3945C65.8991 37.9388 65.4092 37.7109 64.7803 37.7109C64.1514 37.7109 63.6592 37.9388 63.3037 38.3945C62.9482 38.8503 62.7705 39.4814 62.7705 40.2881C62.7705 41.0947 62.9482 41.7259 63.3037 42.1816ZM72.7168 37.6904C72.1836 37.6904 71.7393 37.8682 71.3838 38.2236C71.0329 38.5791 70.8369 39.0417 70.7959 39.6113H74.5625C74.5443 39.0326 74.3665 38.5677 74.0293 38.2168C73.6921 37.8659 73.2546 37.6904 72.7168 37.6904ZM74.5557 41.8262H75.9707C75.8659 42.4915 75.5173 43.0361 74.9248 43.46C74.3324 43.8792 73.6191 44.0889 72.7852 44.0889C71.7096 44.0889 70.8574 43.7516 70.2285 43.0771C69.6042 42.3981 69.292 41.4775 69.292 40.3154C69.292 39.1533 69.6042 38.2236 70.2285 37.5264C70.8529 36.8291 71.6846 36.4805 72.7236 36.4805C73.7445 36.4805 74.5534 36.8109 75.1504 37.4717C75.7474 38.1279 76.0459 39.0189 76.0459 40.1445V40.6641H70.7891V40.7529C70.7891 41.3955 70.9736 41.9128 71.3428 42.3047C71.7119 42.6921 72.2018 42.8857 72.8125 42.8857C73.2454 42.8857 73.6191 42.79 73.9336 42.5986C74.248 42.4072 74.4554 42.1497 74.5557 41.8262Z" fill="#151515"/>
</svg>
