<svg width="80" height="49" viewBox="0 0 80 49" fill="none" xmlns="http://www.w3.org/2000/svg">
<path d="M32.7059 4.60373L29.5 1.39881L30.8988 0L34.1037 3.2059L50.5 3.20588L47.5343 13.0915C47.5343 13.0915 47.0115 13.0915 46.7988 13.0915H34.683V15.0686L47.5343 15.0686L47.5343 17.0458H33.6945C33.4323 17.0458 32.7059 17.0457 32.7059 17.0457C32.7059 17.0457 32.7059 16.3194 32.7059 16.0572V4.60373ZM34.683 5.18302V11.1144H46.0633L47.8428 5.18302H34.683ZM34.1887 21C33.7955 21 33.4183 20.8438 33.1402 20.5657C32.8621 20.2876 32.7059 19.9104 32.7059 19.5172C32.7059 19.1239 32.8621 18.7467 33.1402 18.4686C33.4183 18.1905 33.7955 18.0343 34.1887 18.0343C34.582 18.0343 34.9592 18.1905 35.2373 18.4686C35.5154 18.7467 35.6716 19.1239 35.6716 19.5172C35.6716 19.9104 35.5154 20.2876 35.2373 20.5657C34.9592 20.8438 34.582 21 34.1887 21ZM46.0515 21C45.6582 21 45.281 20.8438 45.003 20.5657C44.7249 20.2876 44.5686 19.9104 44.5686 19.5172C44.5686 19.1239 44.7249 18.7467 45.003 18.4686C45.281 18.1905 45.6582 18.0343 46.0515 18.0343C46.4448 18.0343 46.8219 18.1905 47.1 18.4686C47.3781 18.7467 47.5343 19.1239 47.5343 19.5172C47.5343 19.9104 47.3781 20.2876 47.1 20.5657C46.8219 20.8438 46.4448 21 46.0515 21Z" fill="#151515"/>
<path d="M16.2451 38.8389L20.9893 44H18.9863L14.7344 39.3721H14.6797V44H13.1484V34.1357H14.6797V38.5518H14.7344L18.7539 34.1357H20.5859L16.2451 38.8389ZM27.292 43.0635C26.6631 43.7471 25.8109 44.0889 24.7354 44.0889C23.6598 44.0889 22.8053 43.7471 22.1719 43.0635C21.5384 42.3799 21.2217 41.4548 21.2217 40.2881C21.2217 39.126 21.5384 38.2008 22.1719 37.5127C22.8099 36.8245 23.6644 36.4805 24.7354 36.4805C25.8063 36.4805 26.6585 36.8245 27.292 37.5127C27.9255 38.1963 28.2422 39.1214 28.2422 40.2881C28.2422 41.4548 27.9255 42.3799 27.292 43.0635ZM23.2588 42.1816C23.6143 42.6328 24.1064 42.8584 24.7354 42.8584C25.3643 42.8584 25.8542 42.6328 26.2051 42.1816C26.5605 41.7305 26.7383 41.0993 26.7383 40.2881C26.7383 39.4769 26.5605 38.8457 26.2051 38.3945C25.8542 37.9388 25.3643 37.7109 24.7354 37.7109C24.1064 37.7109 23.6143 37.9388 23.2588 38.3945C22.9033 38.8503 22.7256 39.4814 22.7256 40.2881C22.7256 41.0947 22.9033 41.7259 23.2588 42.1816ZM33.4102 36.501C34.3581 36.501 35.1169 36.8451 35.6865 37.5332C36.2607 38.2214 36.5479 39.1396 36.5479 40.2881C36.5479 41.432 36.263 42.3503 35.6934 43.043C35.1283 43.7311 34.3786 44.0752 33.4443 44.0752C32.9111 44.0752 32.4417 43.9635 32.0361 43.7402C31.6305 43.5124 31.3161 43.1934 31.0928 42.7832H31.0654V46.4268H29.582V36.5762H31.0107V37.8066H31.0449C31.2546 37.4056 31.5713 37.0889 31.9951 36.8564C32.4235 36.6195 32.8952 36.501 33.4102 36.501ZM33.0342 42.8174C33.6357 42.8174 34.1188 42.5872 34.4834 42.127C34.848 41.6667 35.0303 41.0537 35.0303 40.2881C35.0303 39.5225 34.848 38.9095 34.4834 38.4492C34.1188 37.9889 33.6357 37.7588 33.0342 37.7588C32.4463 37.7588 31.9701 37.9912 31.6055 38.4561C31.2409 38.9209 31.0563 39.5316 31.0518 40.2881C31.0563 41.0492 31.2386 41.6621 31.5986 42.127C31.9632 42.5872 32.4417 42.8174 33.0342 42.8174ZM40.5195 44.1367C39.6536 44.1367 38.945 43.9408 38.3936 43.5488C37.8421 43.1523 37.5322 42.6169 37.4639 41.9424H38.9268C39.0042 42.266 39.1797 42.5143 39.4531 42.6875C39.7311 42.8607 40.0866 42.9473 40.5195 42.9473C41.0072 42.9473 41.3854 42.8447 41.6543 42.6396C41.9277 42.43 42.0645 42.1543 42.0645 41.8125C42.0645 41.0788 41.5495 40.7119 40.5195 40.7119H39.4326V39.6113H40.499C41.3877 39.6113 41.832 39.2764 41.832 38.6064C41.832 38.3057 41.7204 38.0664 41.4971 37.8887C41.2783 37.7064 40.957 37.6152 40.5332 37.6152C40.1185 37.6152 39.779 37.6995 39.5146 37.8682C39.2503 38.0368 39.0931 38.2692 39.043 38.5654H37.6211C37.6986 37.9092 37.9971 37.3896 38.5166 37.0068C39.0361 36.624 39.7061 36.4326 40.5264 36.4326C41.4014 36.4326 42.0781 36.6172 42.5566 36.9863C43.0352 37.3555 43.2744 37.8522 43.2744 38.4766C43.2744 38.8548 43.165 39.1921 42.9463 39.4883C42.7275 39.7799 42.4359 39.9691 42.0713 40.0557V40.1104C42.5452 40.2243 42.9053 40.4271 43.1514 40.7188C43.402 41.0104 43.5273 41.3704 43.5273 41.7988C43.5273 42.5052 43.2539 43.0726 42.707 43.501C42.1602 43.9248 41.431 44.1367 40.5195 44.1367ZM46.3506 44H44.8945V36.5762H46.3506V41.8262H46.4053L49.9531 36.5762H51.4092V44H49.9531V38.7295H49.8984L46.3506 44ZM58.0195 44V40.7461H54.54V44H53.0703V36.5762H54.54V39.5703H58.0195V36.5762H59.4893V44H58.0195ZM63.7275 42.8926C64.279 42.8926 64.7393 42.7354 65.1084 42.4209C65.4775 42.1019 65.6621 41.6986 65.6621 41.2109V40.6299L63.8574 40.7529C62.832 40.8167 62.3193 41.1813 62.3193 41.8467C62.3193 42.1657 62.4469 42.4209 62.7021 42.6123C62.9574 42.7992 63.2992 42.8926 63.7275 42.8926ZM63.3311 44.0752C62.5882 44.0752 61.9844 43.8747 61.5195 43.4736C61.0547 43.068 60.8223 42.5348 60.8223 41.874C60.8223 41.2269 61.0638 40.7188 61.5469 40.3496C62.0345 39.9805 62.7386 39.7663 63.6592 39.707L65.6621 39.5908V39.0166C65.6621 38.5928 65.5254 38.2692 65.252 38.0459C64.9831 37.818 64.6003 37.7041 64.1035 37.7041C63.7025 37.7041 63.363 37.7998 63.085 37.9912C62.8115 38.1826 62.6429 38.4401 62.5791 38.7637H61.1914C61.2142 38.1074 61.5036 37.5628 62.0596 37.1299C62.6156 36.6969 63.3105 36.4805 64.1445 36.4805C65.0514 36.4805 65.7738 36.7015 66.3115 37.1436C66.8538 37.5856 67.125 38.1735 67.125 38.9072V44H65.71V42.7627H65.6758C65.4707 43.1637 65.1562 43.4827 64.7324 43.7197C64.3086 43.9567 63.8415 44.0752 63.3311 44.0752Z" fill="#151515"/>
</svg>
